# MagicaVoxel @ Ephtracy

# group
o 

# material
mtllib nomal02.mtl
usemtl palette

# normals
vn -1 0 0
vn 1 0 0
vn 0 0 1
vn 0 0 -1
vn 0 -1 0
vn 0 1 0

# texcoords
vt 0.853516 0.5
vt 0.962891 0.5
vt 0.978516 0.5

# verts
v -0.5 0.7 0.2
v -0.5 0.7 -1.19209e-07
v -0.5 0.8 0.2
v -0.5 0.8 -1.19209e-07
v -0.4 0.4 -1
v -0.4 0.4 -1.1
v -0.4 0.6 -1.19209e-07
v -0.4 0.6 -0.6
v -0.4 0.7 0.3
v -0.4 0.7 0.2
v -0.4 0.7 -1.19209e-07
v -0.4 0.7 -0.6
v -0.4 0.7 -0.7
v -0.4 0.8 0.3
v -0.4 0.8 0.2
v -0.4 0.8 -1.19209e-07
v -0.4 0.8 -0.6
v -0.4 0.8 -0.7
v -0.4 0.9 -1.19209e-07
v -0.4 0.9 -0.6
v -0.4 1.1 -1
v -0.4 1.1 -1.1
v -0.3 0.4 -1.1
v -0.3 0.4 -1.2
v -0.3 0.5 -1.19209e-07
v -0.3 0.5 -0.4
v -0.3 0.5 -0.9
v -0.3 0.5 -1
v -0.3 0.6 0.4
v -0.3 0.6 -1.19209e-07
v -0.3 0.6 -0.4
v -0.3 0.6 -0.6
v -0.3 0.6 -0.7
v -0.3 0.6 -0.8
v -0.3 0.6 -0.9
v -0.3 0.7 0.3
v -0.3 0.7 -1.19209e-07
v -0.3 0.7 -0.6
v -0.3 0.7 -0.7
v -0.3 0.7 -0.8
v -0.3 0.8 0.3
v -0.3 0.8 -1.19209e-07
v -0.3 0.8 -0.6
v -0.3 0.8 -0.7
v -0.3 0.9 0.4
v -0.3 0.9 -1.19209e-07
v -0.3 0.9 -0.6
v -0.3 0.9 -0.8
v -0.3 0.9 -0.9
v -0.3 1 -1.19209e-07
v -0.3 1 -0.8
v -0.3 1 -0.9
v -0.3 1 -1
v -0.3 1.1 -1.1
v -0.3 1.1 -1.2
v -0.2 0.5 0.9
v -0.2 0.5 0.8
v -0.2 0.5 0.4
v -0.2 0.5 -1.19209e-07
v -0.2 0.5 -0.4
v -0.2 0.5 -0.7
v -0.2 0.6 1
v -0.2 0.6 0.9
v -0.2 0.6 0.8
v -0.2 0.6 0.4
v -0.2 0.6 -1.19209e-07
v -0.2 0.6 -0.4
v -0.2 0.6 -0.7
v -0.2 0.9 1
v -0.2 0.9 0.4
v -0.2 0.9 -1.19209e-07
v -0.2 1 0.4
v -0.2 1 -1.19209e-07
v -0.1 0.4 0.9
v -0.1 0.4 0.8
v -0.1 0.5 0.9
v -0.1 0.5 0.8
v -0.1 0.5 0.4
v -0.1 0.6 0.8
v -0.1 0.6 0.4
v -0.1 0.9 1
v -0.1 0.9 0.4
v -0.1 1 1
v -0.1 1 0.4
v 0 1 0.2
v 0 1 -0.1
v 0 1.1 0.2
v 0 1.1 0.0999999
v 0 1.2 0.0999999
v 0 1.2 -0.1
v 0.4 0.5 0.9
v 0.4 0.5 0.8
v 0.4 0.6 1
v 0.4 0.6 0.9
v 0.4 0.6 0.8
v 0.4 0.6 0.7
v 0.4 0.7 1
v 0.4 0.7 0.9
v 0.4 0.7 0.8
v 0.4 0.7 0.7
v -0.2 0.4 -1
v -0.2 0.4 -1.2
v -0.2 0.5 -0.9
v -0.2 0.5 -1
v -0.2 0.6 -0.8
v -0.2 0.6 -0.9
v -0.2 0.7 -0.8
v -0.2 0.9 -0.8
v -0.2 0.9 -0.9
v -0.2 1 -0.9
v -0.2 1 -1
v -0.2 1.1 -1
v -0.2 1.1 -1.2
v -0.1 0.5 0.9
v -0.1 0.5 0.8
v -0.1 0.5 -0.6
v -0.1 0.5 -0.7
v -0.1 0.6 1
v -0.1 0.6 0.9
v -0.1 0.6 0.8
v -0.1 0.6 0.7
v -0.1 0.6 -0.6
v -0.1 0.6 -0.7
v -0.1 0.7 1
v -0.1 0.7 0.9
v -0.1 0.7 0.8
v -0.1 0.7 0.7
v 0 0.9 -0.7
v 0 0.9 -0.8
v 0 1 -0.7
v 0 1 -0.8
v 0.1 0.5 -0.4
v 0.1 0.5 -0.6
v 0.1 0.6 -0.4
v 0.1 0.6 -0.6
v 0.1 0.6 -0.8
v 0.1 0.7 -0.6
v 0.1 0.7 -0.7
v 0.1 0.8 -0.6
v 0.1 0.8 -0.7
v 0.1 0.9 -0.4
v 0.1 0.9 -0.6
v 0.1 0.9 -0.7
v 0.1 0.9 -0.8
v 0.1 1 0.2
v 0.1 1 -0.1
v 0.1 1 -0.4
v 0.1 1 -0.7
v 0.1 1.1 0.2
v 0.1 1.1 0.0999999
v 0.1 1.2 0.0999999
v 0.1 1.2 -0.1
v 0.2 0.5 0.0999999
v 0.2 0.5 -1.19209e-07
v 0.2 0.5 -0.1
v 0.2 0.5 -0.4
v 0.2 0.6 0.0999999
v 0.2 0.6 -1.19209e-07
v 0.2 0.6 -0.1
v 0.2 0.6 -0.4
v 0.2 0.6 -0.6
v 0.2 0.7 -0.6
v 0.2 0.7 -0.7
v 0.2 0.8 -0.6
v 0.2 0.8 -0.7
v 0.2 0.9 0.0999999
v 0.2 0.9 -0.4
v 0.2 0.9 -0.6
v 0.2 1 0.0999999
v 0.2 1 -0.4
v 0.3 0.5 0.3
v 0.3 0.5 0.0999999
v 0.3 0.5 -1.19209e-07
v 0.3 0.5 -0.1
v 0.3 0.6 0.3
v 0.3 0.6 0.0999999
v 0.3 0.6 -1.19209e-07
v 0.3 0.6 -0.1
v 0.3 0.6 -0.2
v 0.3 0.6 -0.4
v 0.3 0.7 0.0999999
v 0.3 0.7 -0.1
v 0.3 0.8 0.0999999
v 0.3 0.8 -0.2
v 0.3 0.9 0.3
v 0.3 0.9 0.0999999
v 0.3 0.9 -0.4
v 0.3 1 0.3
v 0.3 1 0.0999999
v 0.4 0.4 0.9
v 0.4 0.4 0.8
v 0.4 0.5 0.9
v 0.4 0.5 0.8
v 0.4 0.5 0.3
v 0.4 0.6 0.8
v 0.4 0.6 0.3
v 0.4 0.6 0.0999999
v 0.4 0.6 -0.1
v 0.4 0.6 -0.2
v 0.4 0.7 0.0999999
v 0.4 0.7 -0.1
v 0.4 0.7 -0.2
v 0.4 0.8 0.0999999
v 0.4 0.9 1
v 0.4 0.9 0.3
v 0.4 0.9 0.0999999
v 0.4 1 1
v 0.4 1 0.3
v 0.5 0.5 0.9
v 0.5 0.5 0.8
v 0.5 0.6 1
v 0.5 0.6 0.9
v 0.5 0.6 0.8
v 0.5 0.6 0.3
v 0.5 0.7 0.0999999
v 0.5 0.7 -0.1
v 0.5 0.8 0.0999999
v 0.5 0.8 -0.1
v 0.5 0.9 1
v 0.5 0.9 0.3
v 0.6 0.7 -0.1
v 0.6 0.7 -0.2
v 0.6 0.8 -0.1
v 0.6 0.8 -0.2
v -0.2 0.6 1
v -0.2 0.9 1
v -0.1 0.6 1
v -0.1 0.7 1
v -0.1 0.8 1
v -0.1 0.9 1
v -0.1 1 1
v 0 0.8 1
v 0 0.9 1
v 0.3 0.8 1
v 0.3 0.9 1
v 0.4 0.6 1
v 0.4 0.7 1
v 0.4 0.8 1
v 0.4 0.9 1
v 0.4 1 1
v 0.5 0.6 1
v 0.5 0.9 1
v -0.2 0.5 0.9
v -0.2 0.6 0.9
v -0.1 0.4 0.9
v -0.1 0.5 0.9
v -0.1 0.6 0.9
v -0.1 0.7 0.9
v 0.4 0.4 0.9
v 0.4 0.5 0.9
v 0.4 0.6 0.9
v 0.4 0.7 0.9
v 0.5 0.5 0.9
v 0.5 0.6 0.9
v -0.1 0.5 0.8
v -0.1 0.6 0.8
v 0.4 0.5 0.8
v 0.4 0.6 0.8
v -0.1 0.6 0.7
v -0.1 0.7 0.7
v 0.4 0.6 0.7
v 0.4 0.7 0.7
v -0.3 0.6 0.4
v -0.3 0.9 0.4
v -0.2 0.5 0.4
v -0.2 0.6 0.4
v -0.2 0.9 0.4
v -0.2 1 0.4
v -0.1 0.5 0.4
v -0.1 0.6 0.4
v -0.1 0.9 0.4
v -0.1 1 0.4
v -0.4 0.7 0.3
v -0.4 0.8 0.3
v -0.3 0.7 0.3
v -0.3 0.8 0.3
v -0.5 0.7 0.2
v -0.5 0.8 0.2
v -0.4 0.7 0.2
v -0.4 0.8 0.2
v 0 1 0.2
v 0 1.1 0.2
v 0.1 1 0.2
v 0.1 1.1 0.2
v 0 1.1 0.0999999
v 0 1.2 0.0999999
v 0.1 1.1 0.0999999
v 0.1 1.2 0.0999999
v 0.4 0.7 0.0999999
v 0.4 0.8 0.0999999
v 0.5 0.7 0.0999999
v 0.5 0.8 0.0999999
v -0.4 0.6 -1.19209e-07
v -0.4 0.7 -1.19209e-07
v -0.4 0.8 -1.19209e-07
v -0.4 0.9 -1.19209e-07
v -0.3 0.5 -1.19209e-07
v -0.3 0.6 -1.19209e-07
v -0.3 0.7 -1.19209e-07
v -0.3 0.8 -1.19209e-07
v -0.3 0.9 -1.19209e-07
v -0.3 1 -1.19209e-07
v -0.2 0.5 -1.19209e-07
v -0.2 0.6 -1.19209e-07
v -0.2 0.9 -1.19209e-07
v -0.2 1 -1.19209e-07
v 0.2 0.5 -1.19209e-07
v 0.2 0.6 -1.19209e-07
v 0.3 0.5 -1.19209e-07
v 0.3 0.6 -1.19209e-07
v 0.3 0.6 -0.1
v 0.3 0.7 -0.1
v 0.4 0.6 -0.1
v 0.4 0.7 -0.1
v 0.5 0.7 -0.1
v 0.5 0.8 -0.1
v 0.6 0.7 -0.1
v 0.6 0.8 -0.1
v -0.3 0.5 -0.9
v -0.3 0.6 -0.9
v -0.3 0.9 -0.9
v -0.3 1 -0.9
v -0.2 0.5 -0.9
v -0.2 0.6 -0.9
v -0.2 0.9 -0.9
v -0.2 1 -0.9
v -0.4 0.4 -1
v -0.4 1.1 -1
v -0.3 0.5 -1
v -0.3 1 -1
v -0.2 0.4 -1
v -0.2 0.5 -1
v -0.2 1 -1
v -0.2 1.1 -1
v -0.2 0.5 0.8
v -0.2 0.6 0.8
v -0.1 0.4 0.8
v -0.1 0.5 0.8
v -0.1 0.6 0.8
v -0.1 0.7 0.8
v 0.4 0.4 0.8
v 0.4 0.5 0.8
v 0.4 0.6 0.8
v 0.4 0.7 0.8
v 0.5 0.5 0.8
v 0.5 0.6 0.8
v 0.3 0.5 0.3
v 0.3 0.6 0.3
v 0.3 0.9 0.3
v 0.3 1 0.3
v 0.4 0.5 0.3
v 0.4 0.6 0.3
v 0.4 0.9 0.3
v 0.4 1 0.3
v 0.5 0.6 0.3
v 0.5 0.9 0.3
v 0.2 0.5 0.0999999
v 0.2 0.6 0.0999999
v 0.2 0.9 0.0999999
v 0.2 1 0.0999999
v 0.3 0.5 0.0999999
v 0.3 0.6 0.0999999
v 0.3 0.7 0.0999999
v 0.3 0.8 0.0999999
v 0.3 0.9 0.0999999
v 0.3 1 0.0999999
v 0.4 0.6 0.0999999
v 0.4 0.7 0.0999999
v 0.4 0.8 0.0999999
v 0.4 0.9 0.0999999
v -0.5 0.7 -1.19209e-07
v -0.5 0.8 -1.19209e-07
v -0.4 0.7 -1.19209e-07
v -0.4 0.8 -1.19209e-07
v 0 1 -0.1
v 0 1.2 -0.1
v 0.1 1 -0.1
v 0.1 1.2 -0.1
v 0.2 0.5 -0.1
v 0.2 0.6 -0.1
v 0.3 0.5 -0.1
v 0.3 0.6 -0.1
v 0.3 0.6 -0.2
v 0.3 0.8 -0.2
v 0.4 0.6 -0.2
v 0.4 0.7 -0.2
v 0.6 0.7 -0.2
v 0.6 0.8 -0.2
v -0.3 0.5 -0.4
v -0.3 0.6 -0.4
v -0.2 0.5 -0.4
v -0.2 0.6 -0.4
v 0.1 0.5 -0.4
v 0.1 0.6 -0.4
v 0.1 0.9 -0.4
v 0.1 1 -0.4
v 0.2 0.5 -0.4
v 0.2 0.6 -0.4
v 0.2 0.9 -0.4
v 0.2 1 -0.4
v 0.3 0.6 -0.4
v 0.3 0.9 -0.4
v -0.4 0.6 -0.6
v -0.4 0.7 -0.6
v -0.4 0.8 -0.6
v -0.4 0.9 -0.6
v -0.3 0.6 -0.6
v -0.3 0.7 -0.6
v -0.3 0.8 -0.6
v -0.3 0.9 -0.6
v -0.1 0.5 -0.6
v -0.1 0.6 -0.6
v 0.1 0.5 -0.6
v 0.1 0.6 -0.6
v 0.1 0.7 -0.6
v 0.1 0.8 -0.6
v 0.1 0.9 -0.6
v 0.2 0.6 -0.6
v 0.2 0.7 -0.6
v 0.2 0.8 -0.6
v 0.2 0.9 -0.6
v -0.4 0.7 -0.7
v -0.4 0.8 -0.7
v -0.3 0.7 -0.7
v -0.3 0.8 -0.7
v -0.2 0.5 -0.7
v -0.2 0.6 -0.7
v -0.1 0.5 -0.7
v -0.1 0.6 -0.7
v 0 0.9 -0.7
v 0 1 -0.7
v 0.1 0.7 -0.7
v 0.1 0.8 -0.7
v 0.1 0.9 -0.7
v 0.1 1 -0.7
v 0.2 0.7 -0.7
v 0.2 0.8 -0.7
v -0.3 0.9 -0.8
v -0.3 1 -0.8
v -0.2 0.6 -0.8
v -0.2 0.7 -0.8
v -0.2 0.9 -0.8
v -0.1 0.6 -0.8
v -0.1 0.7 -0.8
v 0 0.9 -0.8
v 0 1 -0.8
v 0.1 0.6 -0.8
v 0.1 0.9 -0.8
v -0.4 0.4 -1.1
v -0.4 1.1 -1.1
v -0.3 0.4 -1.1
v -0.3 1.1 -1.1
v -0.3 0.4 -1.2
v -0.3 1.1 -1.2
v -0.2 0.4 -1.2
v -0.2 1.1 -1.2
v -0.1 0.4 0.9
v 0.4 0.4 0.9
v -0.1 0.4 0.8
v 0.4 0.4 0.8
v -0.4 0.4 -1
v -0.2 0.4 -1
v -0.4 0.4 -1.1
v -0.3 0.4 -1.1
v -0.3 0.4 -1.2
v -0.2 0.4 -1.2
v -0.2 0.5 0.9
v -0.1 0.5 0.9
v 0.4 0.5 0.9
v 0.5 0.5 0.9
v -0.2 0.5 0.8
v -0.1 0.5 0.8
v 0.4 0.5 0.8
v 0.5 0.5 0.8
v -0.2 0.5 0.4
v -0.1 0.5 0.4
v 0.3 0.5 0.3
v 0.4 0.5 0.3
v 0.2 0.5 0.0999999
v 0.3 0.5 0.0999999
v -0.3 0.5 -1.19209e-07
v -0.2 0.5 -1.19209e-07
v 0.2 0.5 -1.19209e-07
v 0.3 0.5 -1.19209e-07
v 0.2 0.5 -0.1
v 0.3 0.5 -0.1
v -0.3 0.5 -0.4
v -0.2 0.5 -0.4
v 0.1 0.5 -0.4
v 0.2 0.5 -0.4
v -0.1 0.5 -0.6
v 0.1 0.5 -0.6
v -0.2 0.5 -0.7
v -0.1 0.5 -0.7
v -0.3 0.5 -0.9
v -0.2 0.5 -0.9
v -0.3 0.5 -1
v -0.2 0.5 -1
v -0.2 0.6 1
v -0.1 0.6 1
v 0.4 0.6 1
v 0.5 0.6 1
v -0.2 0.6 0.9
v -0.1 0.6 0.9
v 0.4 0.6 0.9
v 0.5 0.6 0.9
v -0.2 0.6 0.8
v -0.1 0.6 0.8
v 0.4 0.6 0.8
v 0.5 0.6 0.8
v -0.3 0.6 0.4
v -0.2 0.6 0.4
v -0.1 0.6 0.4
v 0.3 0.6 0.3
v 0.4 0.6 0.3
v 0.5 0.6 0.3
v 0.2 0.6 0.0999999
v 0.3 0.6 0.0999999
v 0.4 0.6 0.0999999
v -0.4 0.6 -1.19209e-07
v -0.3 0.6 -1.19209e-07
v -0.2 0.6 -1.19209e-07
v 0.2 0.6 -1.19209e-07
v 0.3 0.6 -1.19209e-07
v 0.2 0.6 -0.1
v 0.3 0.6 -0.1
v 0.4 0.6 -0.1
v 0.3 0.6 -0.2
v 0.4 0.6 -0.2
v -0.3 0.6 -0.4
v -0.2 0.6 -0.4
v 0.1 0.6 -0.4
v 0.2 0.6 -0.4
v 0.3 0.6 -0.4
v -0.4 0.6 -0.6
v -0.3 0.6 -0.6
v -0.1 0.6 -0.6
v 0.1 0.6 -0.6
v 0.2 0.6 -0.6
v -0.3 0.6 -0.7
v -0.2 0.6 -0.7
v -0.1 0.6 -0.7
v -0.3 0.6 -0.8
v -0.2 0.6 -0.8
v -0.1 0.6 -0.8
v 0.1 0.6 -0.8
v -0.3 0.6 -0.9
v -0.2 0.6 -0.9
v -0.1 0.7 1
v 0.4 0.7 1
v -0.1 0.7 0.9
v 0.4 0.7 0.9
v -0.1 0.7 0.8
v 0.4 0.7 0.8
v -0.1 0.7 0.7
v 0.4 0.7 0.7
v -0.4 0.7 0.3
v -0.3 0.7 0.3
v -0.5 0.7 0.2
v -0.4 0.7 0.2
v 0.3 0.7 0.0999999
v 0.4 0.7 0.0999999
v 0.5 0.7 0.0999999
v -0.5 0.7 -1.19209e-07
v -0.4 0.7 -1.19209e-07
v -0.3 0.7 -1.19209e-07
v 0.3 0.7 -0.1
v 0.4 0.7 -0.1
v 0.5 0.7 -0.1
v 0.6 0.7 -0.1
v 0.4 0.7 -0.2
v 0.6 0.7 -0.2
v -0.4 0.7 -0.6
v -0.3 0.7 -0.6
v 0.1 0.7 -0.6
v 0.2 0.7 -0.6
v -0.4 0.7 -0.7
v -0.3 0.7 -0.7
v 0.1 0.7 -0.7
v 0.2 0.7 -0.7
v -0.1 0.5 0.9
v 0.4 0.5 0.9
v -0.1 0.5 0.8
v 0.4 0.5 0.8
v -0.1 0.6 0.8
v 0.4 0.6 0.8
v -0.1 0.6 0.7
v 0.4 0.6 0.7
v -0.4 0.8 0.3
v -0.3 0.8 0.3
v -0.5 0.8 0.2
v -0.4 0.8 0.2
v 0.3 0.8 0.0999999
v 0.4 0.8 0.0999999
v 0.5 0.8 0.0999999
v -0.5 0.8 -1.19209e-07
v -0.4 0.8 -1.19209e-07
v -0.3 0.8 -1.19209e-07
v 0.5 0.8 -0.1
v 0.6 0.8 -0.1
v 0.3 0.8 -0.2
v 0.6 0.8 -0.2
v -0.4 0.8 -0.6
v -0.3 0.8 -0.6
v 0.1 0.8 -0.6
v 0.2 0.8 -0.6
v -0.4 0.8 -0.7
v -0.3 0.8 -0.7
v 0.1 0.8 -0.7
v 0.2 0.8 -0.7
v -0.2 0.9 1
v -0.1 0.9 1
v 0.4 0.9 1
v 0.5 0.9 1
v -0.3 0.9 0.4
v -0.2 0.9 0.4
v -0.1 0.9 0.4
v 0.3 0.9 0.3
v 0.4 0.9 0.3
v 0.5 0.9 0.3
v 0.2 0.9 0.0999999
v 0.3 0.9 0.0999999
v 0.4 0.9 0.0999999
v -0.4 0.9 -1.19209e-07
v -0.3 0.9 -1.19209e-07
v -0.2 0.9 -1.19209e-07
v 0.1 0.9 -0.4
v 0.2 0.9 -0.4
v 0.3 0.9 -0.4
v -0.4 0.9 -0.6
v -0.3 0.9 -0.6
v 0.1 0.9 -0.6
v 0.2 0.9 -0.6
v 0 0.9 -0.7
v 0.1 0.9 -0.7
v -0.3 0.9 -0.8
v -0.2 0.9 -0.8
v 0 0.9 -0.8
v 0.1 0.9 -0.8
v -0.3 0.9 -0.9
v -0.2 0.9 -0.9
v -0.1 1 1
v 0.4 1 1
v -0.2 1 0.4
v -0.1 1 0.4
v 0.3 1 0.3
v 0.4 1 0.3
v 0 1 0.2
v 0.1 1 0.2
v 0.2 1 0.0999999
v 0.3 1 0.0999999
v -0.3 1 -1.19209e-07
v -0.2 1 -1.19209e-07
v 0 1 -0.1
v 0.1 1 -0.1
v 0.1 1 -0.4
v 0.2 1 -0.4
v 0 1 -0.7
v 0.1 1 -0.7
v -0.3 1 -0.8
v 0 1 -0.8
v -0.3 1 -0.9
v -0.2 1 -0.9
v -0.3 1 -1
v -0.2 1 -1
v 0 1.1 0.2
v 0.1 1.1 0.2
v 0 1.1 0.0999999
v 0.1 1.1 0.0999999
v -0.4 1.1 -1
v -0.2 1.1 -1
v -0.4 1.1 -1.1
v -0.3 1.1 -1.1
v -0.3 1.1 -1.2
v -0.2 1.1 -1.2
v 0 1.2 0.0999999
v 0.1 1.2 0.0999999
v 0 1.2 -0.1
v 0.1 1.2 -0.1

# faces
f 3/3/1 2/3/1 1/3/1
f 4/3/1 2/3/1 3/3/1
f 11/3/1 8/3/1 7/3/1
f 12/3/1 8/3/1 11/3/1
f 14/3/1 10/3/1 9/3/1
f 15/3/1 10/3/1 14/3/1
f 16/3/1 13/3/1 12/3/1
f 16/3/1 12/3/1 11/3/1
f 17/3/1 13/3/1 16/3/1
f 18/3/1 13/3/1 17/3/1
f 19/3/1 17/3/1 16/3/1
f 20/3/1 17/3/1 19/3/1
f 21/3/1 6/3/1 5/3/1
f 22/3/1 6/3/1 21/3/1
f 30/2/1 26/2/1 25/2/1
f 31/2/1 26/2/1 30/2/1
f 35/3/1 28/3/1 27/3/1
f 36/3/1 30/3/1 29/3/1
f 37/3/1 30/3/1 36/3/1
f 38/3/1 33/3/1 32/3/1
f 39/2/1 34/2/1 33/2/1
f 39/3/1 33/3/1 38/3/1
f 40/3/1 35/3/1 34/3/1
f 40/2/1 34/2/1 39/2/1
f 41/3/1 36/3/1 29/3/1
f 44/3/1 40/3/1 39/3/1
f 45/3/1 42/3/1 41/3/1
f 45/3/1 41/3/1 29/3/1
f 46/3/1 42/3/1 45/3/1
f 47/3/1 44/3/1 43/3/1
f 48/3/1 35/3/1 40/3/1
f 48/3/1 40/3/1 44/3/1
f 48/3/1 44/3/1 47/3/1
f 49/3/1 28/3/1 35/3/1
f 49/3/1 35/3/1 48/3/1
f 50/3/1 47/3/1 46/3/1
f 50/3/1 48/3/1 47/3/1
f 51/3/1 48/3/1 50/3/1
f 52/3/1 28/3/1 49/3/1
f 53/3/1 28/3/1 52/3/1
f 54/3/1 24/3/1 23/3/1
f 55/3/1 24/3/1 54/3/1
f 63/2/1 57/2/1 56/2/1
f 64/2/1 57/2/1 63/2/1
f 65/2/1 59/2/1 58/2/1
f 66/2/1 59/2/1 65/2/1
f 67/2/1 61/2/1 60/2/1
f 68/2/1 61/2/1 67/2/1
f 69/3/1 64/3/1 63/3/1
f 69/3/1 63/3/1 62/3/1
f 69/3/1 65/3/1 64/3/1
f 70/3/1 65/3/1 69/3/1
f 72/3/1 71/3/1 70/3/1
f 73/3/1 71/3/1 72/3/1
f 76/2/1 75/2/1 74/2/1
f 77/2/1 75/2/1 76/2/1
f 79/2/1 78/2/1 77/2/1
f 80/2/1 78/2/1 79/2/1
f 83/3/1 82/3/1 81/3/1
f 84/3/1 82/3/1 83/3/1
f 87/3/1 86/3/1 85/3/1
f 88/3/1 86/3/1 87/3/1
f 89/3/1 86/3/1 88/3/1
f 90/3/1 86/3/1 89/3/1
f 94/2/1 92/2/1 91/2/1
f 95/2/1 92/2/1 94/2/1
f 97/3/1 94/3/1 93/3/1
f 98/3/1 94/3/1 97/3/1
f 99/3/1 96/3/1 95/3/1
f 100/3/1 96/3/1 99/3/1
f 101/3/2 102/3/2 104/3/2
f 103/3/2 104/3/2 106/3/2
f 105/3/2 106/3/2 107/3/2
f 107/3/2 106/3/2 108/3/2
f 106/3/2 104/3/2 109/3/2
f 108/3/2 106/3/2 109/3/2
f 109/3/2 104/3/2 110/3/2
f 104/3/2 102/3/2 111/3/2
f 110/3/2 104/3/2 111/3/2
f 111/3/2 102/3/2 112/3/2
f 112/3/2 102/3/2 113/3/2
f 114/2/2 115/2/2 119/2/2
f 119/2/2 115/2/2 120/2/2
f 116/2/2 117/2/2 122/2/2
f 122/2/2 117/2/2 123/2/2
f 118/3/2 119/3/2 124/3/2
f 124/3/2 119/3/2 125/3/2
f 120/3/2 121/3/2 126/3/2
f 126/3/2 121/3/2 127/3/2
f 128/3/2 129/3/2 130/3/2
f 130/3/2 129/3/2 131/3/2
f 132/2/2 133/2/2 134/2/2
f 134/2/2 133/2/2 135/2/2
f 135/3/2 136/3/2 137/3/2
f 137/3/2 136/3/2 138/3/2
f 138/3/2 136/3/2 140/3/2
f 139/3/2 140/3/2 142/3/2
f 140/3/2 136/3/2 143/3/2
f 142/3/2 140/3/2 143/3/2
f 143/3/2 136/3/2 144/3/2
f 141/3/2 142/3/2 147/3/2
f 142/3/2 143/3/2 147/3/2
f 147/3/2 143/3/2 148/3/2
f 145/3/2 146/3/2 149/3/2
f 149/3/2 146/3/2 150/3/2
f 150/3/2 146/3/2 151/3/2
f 151/3/2 146/3/2 152/3/2
f 153/2/2 154/2/2 157/2/2
f 157/2/2 154/2/2 158/2/2
f 155/2/2 156/2/2 159/2/2
f 159/2/2 156/2/2 160/2/2
f 160/3/2 161/3/2 162/3/2
f 160/3/2 162/3/2 164/3/2
f 162/3/2 163/3/2 164/3/2
f 164/3/2 163/3/2 165/3/2
f 160/3/2 164/3/2 167/3/2
f 167/3/2 164/3/2 168/3/2
f 166/3/2 167/3/2 169/3/2
f 169/3/2 167/3/2 170/3/2
f 171/2/2 172/2/2 175/2/2
f 175/2/2 172/2/2 176/2/2
f 173/2/2 174/2/2 177/2/2
f 177/2/2 174/2/2 178/2/2
f 176/3/2 177/3/2 181/3/2
f 177/3/2 178/3/2 181/3/2
f 181/3/2 178/3/2 182/3/2
f 179/3/2 180/3/2 184/3/2
f 183/3/2 184/3/2 186/3/2
f 184/3/2 180/3/2 187/3/2
f 186/3/2 184/3/2 187/3/2
f 185/3/2 186/3/2 188/3/2
f 188/3/2 186/3/2 189/3/2
f 190/2/2 191/2/2 192/2/2
f 192/2/2 191/2/2 193/2/2
f 193/2/2 194/2/2 195/2/2
f 195/2/2 194/2/2 196/2/2
f 196/3/2 197/3/2 200/3/2
f 198/3/2 199/3/2 201/3/2
f 201/3/2 199/3/2 202/3/2
f 196/3/2 200/3/2 203/3/2
f 196/3/2 203/3/2 205/3/2
f 205/3/2 203/3/2 206/3/2
f 204/3/2 205/3/2 207/3/2
f 207/3/2 205/3/2 208/3/2
f 209/2/2 210/2/2 212/2/2
f 212/2/2 210/2/2 213/2/2
f 215/3/2 216/3/2 217/3/2
f 217/3/2 216/3/2 218/3/2
f 211/3/2 212/3/2 219/3/2
f 212/3/2 213/3/2 219/3/2
f 213/3/2 214/3/2 219/3/2
f 219/3/2 214/3/2 220/3/2
f 221/3/2 222/3/2 223/3/2
f 223/3/2 222/3/2 224/3/2
f 227/3/3 226/3/3 225/3/3
f 228/3/3 226/3/3 227/3/3
f 229/3/3 226/3/3 228/3/3
f 230/3/3 226/3/3 229/3/3
f 232/3/3 229/3/3 228/3/3
f 232/1/3 230/1/3 229/1/3
f 233/3/3 231/3/3 230/3/3
f 233/1/3 230/1/3 232/1/3
f 234/3/3 232/3/3 228/3/3
f 234/3/3 233/3/3 232/3/3
f 235/3/3 231/3/3 233/3/3
f 235/3/3 233/3/3 234/3/3
f 237/3/3 234/3/3 228/3/3
f 238/1/3 235/1/3 234/1/3
f 238/3/3 234/3/3 237/3/3
f 239/3/3 231/3/3 235/3/3
f 239/1/3 235/1/3 238/1/3
f 240/3/3 231/3/3 239/3/3
f 241/3/3 238/3/3 237/3/3
f 241/3/3 237/3/3 236/3/3
f 241/3/3 239/3/3 238/3/3
f 242/3/3 239/3/3 241/3/3
f 246/2/3 244/2/3 243/2/3
f 247/2/3 244/2/3 246/2/3
f 249/2/3 246/2/3 245/2/3
f 250/2/3 246/2/3 249/2/3
f 251/2/3 248/2/3 247/2/3
f 252/2/3 248/2/3 251/2/3
f 253/2/3 251/2/3 250/2/3
f 254/2/3 251/2/3 253/2/3
f 257/2/3 256/2/3 255/2/3
f 258/2/3 256/2/3 257/2/3
f 261/2/3 260/2/3 259/2/3
f 262/2/3 260/2/3 261/2/3
f 266/3/3 264/3/3 263/3/3
f 267/3/3 264/3/3 266/3/3
f 269/2/3 266/2/3 265/2/3
f 270/2/3 266/2/3 269/2/3
f 271/3/3 268/3/3 267/3/3
f 272/3/3 268/3/3 271/3/3
f 275/3/3 274/3/3 273/3/3
f 276/3/3 274/3/3 275/3/3
f 279/3/3 278/3/3 277/3/3
f 280/3/3 278/3/3 279/3/3
f 283/3/3 282/3/3 281/3/3
f 284/3/3 282/3/3 283/3/3
f 287/3/3 286/3/3 285/3/3
f 288/3/3 286/3/3 287/3/3
f 291/3/3 290/3/3 289/3/3
f 292/3/3 290/3/3 291/3/3
f 298/3/3 294/3/3 293/3/3
f 299/3/3 294/3/3 298/3/3
f 300/3/3 296/3/3 295/3/3
f 301/3/3 296/3/3 300/3/3
f 303/2/3 298/2/3 297/2/3
f 304/2/3 298/2/3 303/2/3
f 305/3/3 302/3/3 301/3/3
f 306/3/3 302/3/3 305/3/3
f 309/2/3 308/2/3 307/2/3
f 310/2/3 308/2/3 309/2/3
f 313/3/3 312/3/3 311/3/3
f 314/3/3 312/3/3 313/3/3
f 317/3/3 316/3/3 315/3/3
f 318/3/3 316/3/3 317/3/3
f 323/3/3 320/3/3 319/3/3
f 324/3/3 320/3/3 323/3/3
f 325/3/3 322/3/3 321/3/3
f 326/3/3 322/3/3 325/3/3
f 329/3/3 328/3/3 327/3/3
f 330/3/3 328/3/3 329/3/3
f 331/3/3 329/3/3 327/3/3
f 332/3/3 329/3/3 331/3/3
f 333/3/3 328/3/3 330/3/3
f 334/3/3 328/3/3 333/3/3
f 335/2/4 336/2/4 338/2/4
f 338/2/4 336/2/4 339/2/4
f 337/2/4 338/2/4 341/2/4
f 341/2/4 338/2/4 342/2/4
f 339/2/4 340/2/4 343/2/4
f 343/2/4 340/2/4 344/2/4
f 342/2/4 343/2/4 345/2/4
f 345/2/4 343/2/4 346/2/4
f 347/2/4 348/2/4 351/2/4
f 351/2/4 348/2/4 352/2/4
f 349/3/4 350/3/4 353/3/4
f 353/3/4 350/3/4 354/3/4
f 352/3/4 353/3/4 355/3/4
f 355/3/4 353/3/4 356/3/4
f 357/2/4 358/2/4 361/2/4
f 361/2/4 358/2/4 362/2/4
f 359/3/4 360/3/4 365/3/4
f 365/3/4 360/3/4 366/3/4
f 362/3/4 363/3/4 367/3/4
f 367/3/4 363/3/4 368/3/4
f 364/3/4 365/3/4 369/3/4
f 369/3/4 365/3/4 370/3/4
f 371/3/4 372/3/4 373/3/4
f 373/3/4 372/3/4 374/3/4
f 375/3/4 376/3/4 377/3/4
f 377/3/4 376/3/4 378/3/4
f 379/2/4 380/2/4 381/2/4
f 381/2/4 380/2/4 382/2/4
f 383/3/4 384/3/4 385/3/4
f 385/3/4 384/3/4 386/3/4
f 386/3/4 384/3/4 387/3/4
f 387/3/4 384/3/4 388/3/4
f 389/2/4 390/2/4 391/2/4
f 391/2/4 390/2/4 392/2/4
f 393/2/4 394/2/4 397/2/4
f 397/2/4 394/2/4 398/2/4
f 395/3/4 396/3/4 399/3/4
f 399/3/4 396/3/4 400/3/4
f 398/3/4 399/3/4 401/3/4
f 401/3/4 399/3/4 402/3/4
f 403/3/4 404/3/4 407/3/4
f 407/3/4 404/3/4 408/3/4
f 405/3/4 406/3/4 409/3/4
f 409/3/4 406/3/4 410/3/4
f 411/2/4 412/2/4 413/2/4
f 413/2/4 412/2/4 414/2/4
f 414/3/4 415/3/4 418/3/4
f 418/3/4 415/3/4 419/3/4
f 416/3/4 417/3/4 420/3/4
f 420/3/4 417/3/4 421/3/4
f 422/3/4 423/3/4 424/3/4
f 424/3/4 423/3/4 425/3/4
f 426/2/4 427/2/4 428/2/4
f 428/2/4 427/2/4 429/2/4
f 430/3/4 431/3/4 434/3/4
f 434/3/4 431/3/4 435/3/4
f 432/3/4 433/3/4 436/3/4
f 436/3/4 433/3/4 437/3/4
f 438/3/4 439/3/4 442/3/4
f 440/2/4 441/2/4 443/2/4
f 441/3/4 442/3/4 444/3/4
f 443/2/4 441/2/4 444/2/4
f 442/3/4 439/3/4 445/3/4
f 444/3/4 442/3/4 445/3/4
f 443/3/4 444/3/4 445/3/4
f 445/3/4 439/3/4 446/3/4
f 443/3/4 445/3/4 447/3/4
f 447/3/4 445/3/4 448/3/4
f 449/3/4 450/3/4 451/3/4
f 451/3/4 450/3/4 452/3/4
f 453/3/4 454/3/4 455/3/4
f 455/3/4 454/3/4 456/3/4
f 459/2/5 458/2/5 457/2/5
f 460/2/5 458/2/5 459/2/5
f 463/3/5 462/3/5 461/3/5
f 464/3/5 462/3/5 463/3/5
f 465/3/5 462/3/5 464/3/5
f 466/3/5 462/3/5 465/3/5
f 471/2/5 468/2/5 467/2/5
f 472/2/5 468/2/5 471/2/5
f 473/2/5 470/2/5 469/2/5
f 474/2/5 470/2/5 473/2/5
f 476/2/5 473/2/5 472/2/5
f 477/2/5 473/2/5 476/2/5
f 477/2/5 476/2/5 475/2/5
f 478/2/5 473/2/5 477/2/5
f 479/2/5 477/2/5 475/2/5
f 480/2/5 477/2/5 479/2/5
f 482/2/5 479/2/5 475/2/5
f 483/2/5 479/2/5 482/2/5
f 485/2/5 482/2/5 481/2/5
f 485/2/5 484/2/5 483/2/5
f 485/2/5 483/2/5 482/2/5
f 486/2/5 484/2/5 485/2/5
f 487/2/5 485/2/5 481/2/5
f 488/2/5 485/2/5 487/2/5
f 489/2/5 485/2/5 488/2/5
f 490/2/5 485/2/5 489/2/5
f 491/2/5 489/2/5 488/2/5
f 492/2/5 489/2/5 491/2/5
f 493/2/5 491/2/5 488/2/5
f 494/2/5 491/2/5 493/2/5
f 497/3/5 496/3/5 495/3/5
f 498/3/5 496/3/5 497/3/5
f 503/3/5 500/3/5 499/3/5
f 504/3/5 500/3/5 503/3/5
f 505/3/5 502/3/5 501/3/5
f 506/3/5 502/3/5 505/3/5
f 508/2/5 505/2/5 504/2/5
f 509/2/5 505/2/5 508/2/5
f 512/3/5 508/3/5 507/3/5
f 513/3/5 508/3/5 512/3/5
f 515/3/5 510/3/5 509/3/5
f 516/3/5 510/3/5 515/3/5
f 518/3/5 515/3/5 514/3/5
f 519/3/5 515/3/5 518/3/5
f 521/3/5 512/3/5 511/3/5
f 522/3/5 512/3/5 521/3/5
f 523/3/5 518/3/5 517/3/5
f 524/3/5 518/3/5 523/3/5
f 528/3/5 526/3/5 525/3/5
f 528/3/5 527/3/5 526/3/5
f 529/3/5 527/3/5 528/3/5
f 530/3/5 521/3/5 520/3/5
f 533/3/5 528/3/5 525/3/5
f 534/3/5 528/3/5 533/3/5
f 535/3/5 531/3/5 530/3/5
f 535/3/5 530/3/5 520/3/5
f 536/3/5 531/3/5 535/3/5
f 538/3/5 533/3/5 532/3/5
f 539/3/5 533/3/5 538/3/5
f 540/3/5 531/3/5 536/3/5
f 541/3/5 531/3/5 540/3/5
f 542/3/5 538/3/5 537/3/5
f 543/2/5 541/2/5 540/2/5
f 543/2/5 542/2/5 541/2/5
f 544/2/5 542/2/5 543/2/5
f 545/3/5 538/3/5 542/3/5
f 545/2/5 542/2/5 544/2/5
f 546/3/5 538/3/5 545/3/5
f 547/3/5 544/3/5 543/3/5
f 548/3/5 544/3/5 547/3/5
f 551/3/5 550/3/5 549/3/5
f 552/3/5 550/3/5 551/3/5
f 555/2/5 554/2/5 553/2/5
f 556/2/5 554/2/5 555/2/5
f 560/3/5 558/3/5 557/3/5
f 564/3/5 560/3/5 559/3/5
f 565/3/5 558/3/5 560/3/5
f 565/3/5 560/3/5 564/3/5
f 566/3/5 558/3/5 565/3/5
f 567/3/5 562/3/5 561/3/5
f 567/3/5 563/3/5 562/3/5
f 568/3/5 563/3/5 567/3/5
f 569/3/5 563/3/5 568/3/5
f 571/3/5 570/3/5 569/3/5
f 571/3/5 569/3/5 568/3/5
f 572/3/5 570/3/5 571/3/5
f 577/3/5 574/3/5 573/3/5
f 578/3/5 574/3/5 577/3/5
f 579/3/5 576/3/5 575/3/5
f 580/3/5 576/3/5 579/3/5
f 581/2/6 582/2/6 583/2/6
f 583/2/6 582/2/6 584/2/6
f 585/2/6 586/2/6 587/2/6
f 587/2/6 586/2/6 588/2/6
f 589/3/6 590/3/6 592/3/6
f 591/3/6 592/3/6 596/3/6
f 592/3/6 590/3/6 597/3/6
f 596/3/6 592/3/6 597/3/6
f 597/3/6 590/3/6 598/3/6
f 594/3/6 595/3/6 599/3/6
f 593/3/6 594/3/6 599/3/6
f 593/3/6 599/3/6 601/3/6
f 599/3/6 600/3/6 601/3/6
f 601/3/6 600/3/6 602/3/6
f 603/3/6 604/3/6 607/3/6
f 607/3/6 604/3/6 608/3/6
f 605/3/6 606/3/6 609/3/6
f 609/3/6 606/3/6 610/3/6
f 611/3/6 612/3/6 616/3/6
f 616/3/6 612/3/6 617/3/6
f 613/3/6 614/3/6 619/3/6
f 619/3/6 614/3/6 620/3/6
f 618/3/6 619/3/6 622/3/6
f 622/3/6 619/3/6 623/3/6
f 615/3/6 616/3/6 625/3/6
f 625/3/6 616/3/6 626/3/6
f 621/3/6 622/3/6 628/3/6
f 628/3/6 622/3/6 629/3/6
f 624/3/6 625/3/6 630/3/6
f 630/3/6 625/3/6 631/3/6
f 627/3/6 628/3/6 632/3/6
f 632/3/6 628/3/6 633/3/6
f 634/3/6 635/3/6 638/3/6
f 638/3/6 635/3/6 639/3/6
f 636/3/6 637/3/6 640/3/6
f 640/3/6 637/3/6 641/3/6
f 642/3/6 643/3/6 645/3/6
f 645/3/6 643/3/6 646/3/6
f 644/3/6 645/3/6 646/3/6
f 646/3/6 643/3/6 647/3/6
f 644/3/6 646/3/6 648/3/6
f 648/3/6 646/3/6 649/3/6
f 649/3/6 646/3/6 650/3/6
f 650/3/6 646/3/6 651/3/6
f 644/3/6 648/3/6 653/3/6
f 653/3/6 648/3/6 654/3/6
f 652/3/6 653/3/6 654/3/6
f 649/3/6 650/3/6 655/3/6
f 655/3/6 650/3/6 656/3/6
f 654/3/6 655/3/6 656/3/6
f 656/3/6 650/3/6 657/3/6
f 652/3/6 654/3/6 658/3/6
f 654/3/6 656/3/6 658/3/6
f 658/3/6 656/3/6 659/3/6
f 652/3/6 658/3/6 660/3/6
f 660/3/6 658/3/6 661/3/6
f 662/3/6 663/3/6 664/3/6
f 664/3/6 663/3/6 665/3/6
f 666/3/6 667/3/6 668/3/6
f 668/3/6 667/3/6 669/3/6
f 670/3/6 671/3/6 672/3/6
f 672/3/6 671/3/6 673/3/6
f 673/3/6 671/3/6 674/3/6
f 674/3/6 671/3/6 675/3/6
f 676/3/6 677/3/6 678/3/6
f 678/3/6 677/3/6 679/3/6
