# MagicaVoxel @ Ephtracy

# group
o 

# material
mtllib Tank02.mtl
usemtl palette

# normals
vn -1 0 0
vn 1 0 0
vn 0 0 1
vn 0 0 -1
vn 0 -1 0
vn 0 1 0

# texcoords
vt 0.845703 0.5
vt 0.888672 0.5
vt 0.904297 0.5
vt 0.908203 0.5

# verts
v -0.8 0.3 -0.2
v -0.8 0.3 -0.3
v -0.8 0.3 -0.7
v -0.8 0.3 -0.8
v -0.8 0.4 -0.2
v -0.8 0.4 -0.3
v -0.8 0.4 -0.7
v -0.8 0.4 -0.8
v -0.7 0.3 -0.1
v -0.7 0.3 -0.2
v -0.7 0.3 -0.6
v -0.7 0.3 -0.7
v -0.7 0.4 -0.1
v -0.7 0.4 -0.2
v -0.7 0.4 -0.6
v -0.7 0.4 -0.7
v -0.6 0.3 0
v -0.6 0.3 -0.1
v -0.6 0.3 -0.5
v -0.6 0.3 -0.6
v -0.6 0.4 0
v -0.6 0.4 -0.1
v -0.6 0.4 -0.5
v -0.6 0.4 -0.6
v -0.5 0.4 0.1
v -0.5 0.4 0
v -0.5 0.4 -0.3
v -0.5 0.4 -0.5
v -0.5 0.4 -0.8
v -0.5 0.4 -0.9
v -0.5 0.5 0.1
v -0.5 0.5 -0.9
v -0.4 0.3 0.1
v -0.4 0.3 0
v -0.4 0.3 -0.2
v -0.4 0.3 -0.5
v -0.4 0.3 -0.7
v -0.4 0.3 -0.8
v -0.4 0.4 0.2
v -0.4 0.4 0.1
v -0.4 0.4 0
v -0.4 0.4 -0.2
v -0.4 0.4 -0.5
v -0.4 0.4 -0.7
v -0.4 0.4 -0.8
v -0.4 0.4 -0.9
v -0.4 0.4 -1
v -0.4 0.5 0.2
v -0.4 0.5 0.1
v -0.4 0.5 -0.1
v -0.4 0.5 -0.2
v -0.4 0.5 -0.6
v -0.4 0.5 -0.7
v -0.4 0.5 -0.9
v -0.4 0.5 -1
v -0.4 0.6 0.1
v -0.4 0.6 -0.1
v -0.4 0.6 -0.2
v -0.4 0.6 -0.6
v -0.4 0.6 -0.7
v -0.4 0.6 -0.9
v -0.3 0.3 -0.8
v -0.3 0.3 -0.9
v -0.3 0.4 -0.8
v -0.3 0.4 -0.9
v -0.2 0.3 0.4
v -0.2 0.3 0.2
v -0.2 0.3 -0.9
v -0.2 0.3 -1
v -0.2 0.4 0.2
v -0.2 0.4 -0.9
v -0.2 0.4 -1
v -0.2 0.5 0.2
v -0.2 0.6 0.4
v -0.2 0.6 0.2
v -0.1 0.3 0.5
v -0.1 0.3 0.4
v -0.1 0.3 0.2
v -0.1 0.3 0.1
v -0.1 0.3 -1
v -0.1 0.3 -1.1
v -0.1 0.4 0.2
v -0.1 0.4 0.1
v -0.1 0.4 -1
v -0.1 0.4 -1.1
v -0.1 0.5 0.5
v -0.1 0.5 0.4
v -0.1 0.6 0.4
v -0.1 0.6 0.2
v -0.1 0.7 0.4
v -0.1 0.7 0.2
v 5.96046e-08 0.3 -1.1
v 5.96046e-08 0.3 -1.2
v 5.96046e-08 0.4 -1.1
v 5.96046e-08 0.4 -1.2
v 5.96046e-08 0.5 0.5
v 5.96046e-08 0.5 0.4
v 5.96046e-08 0.6 0.5
v 5.96046e-08 0.6 0.4
v 0.6 0.3 -0.2
v 0.6 0.3 -0.3
v 0.6 0.3 -0.7
v 0.6 0.3 -0.8
v 0.6 0.4 -0.2
v 0.6 0.4 -0.3
v 0.6 0.4 -0.7
v 0.6 0.4 -0.8
v -0.5 0.3 -0.2
v -0.5 0.3 -0.3
v -0.5 0.3 -0.7
v -0.5 0.3 -0.8
v -0.5 0.4 -0.2
v -0.5 0.4 -0.3
v -0.5 0.4 -0.7
v -0.5 0.4 -0.8
v 0.1 0.3 -1.1
v 0.1 0.3 -1.2
v 0.1 0.4 -1.1
v 0.1 0.4 -1.2
v 0.1 0.5 0.5
v 0.1 0.5 0.4
v 0.1 0.6 0.5
v 0.1 0.6 0.4
v 0.2 0.3 0.5
v 0.2 0.3 0.4
v 0.2 0.3 0.2
v 0.2 0.3 0.1
v 0.2 0.3 -1
v 0.2 0.3 -1.1
v 0.2 0.4 0.2
v 0.2 0.4 0.1
v 0.2 0.4 -1
v 0.2 0.4 -1.1
v 0.2 0.5 0.5
v 0.2 0.5 0.4
v 0.2 0.6 0.4
v 0.2 0.6 0.2
v 0.2 0.7 0.4
v 0.2 0.7 0.2
v 0.3 0.3 0.4
v 0.3 0.3 0.2
v 0.3 0.3 -0.9
v 0.3 0.3 -1
v 0.3 0.4 0.2
v 0.3 0.4 -0.9
v 0.3 0.4 -1
v 0.3 0.5 0.2
v 0.3 0.6 0.4
v 0.3 0.6 0.2
v 0.4 0.3 -0.8
v 0.4 0.3 -0.9
v 0.4 0.4 -0.8
v 0.4 0.4 -0.9
v 0.5 0.3 0.1
v 0.5 0.3 0
v 0.5 0.3 -0.2
v 0.5 0.3 -0.5
v 0.5 0.3 -0.7
v 0.5 0.3 -0.8
v 0.5 0.4 0.2
v 0.5 0.4 0.1
v 0.5 0.4 0
v 0.5 0.4 -0.2
v 0.5 0.4 -0.5
v 0.5 0.4 -0.7
v 0.5 0.4 -0.8
v 0.5 0.4 -0.9
v 0.5 0.4 -1
v 0.5 0.5 0.2
v 0.5 0.5 0.1
v 0.5 0.5 -0.1
v 0.5 0.5 -0.2
v 0.5 0.5 -0.6
v 0.5 0.5 -0.7
v 0.5 0.5 -0.9
v 0.5 0.5 -1
v 0.5 0.6 0.1
v 0.5 0.6 -0.1
v 0.5 0.6 -0.2
v 0.5 0.6 -0.6
v 0.5 0.6 -0.7
v 0.5 0.6 -0.9
v 0.6 0.4 0.1
v 0.6 0.4 0
v 0.6 0.4 -0.3
v 0.6 0.4 -0.5
v 0.6 0.4 -0.8
v 0.6 0.4 -0.9
v 0.6 0.5 0.1
v 0.6 0.5 -0.9
v 0.8 0.3 0
v 0.8 0.3 -0.1
v 0.8 0.3 -0.5
v 0.8 0.3 -0.6
v 0.8 0.4 0
v 0.8 0.4 -0.1
v 0.8 0.4 -0.5
v 0.8 0.4 -0.6
v 0.9 0.3 -0.1
v 0.9 0.3 -0.2
v 0.9 0.3 -0.6
v 0.9 0.3 -0.7
v 0.9 0.4 -0.1
v 0.9 0.4 -0.2
v 0.9 0.4 -0.6
v 0.9 0.4 -0.7
v 1 0.3 -0.2
v 1 0.3 -0.3
v 1 0.3 -0.7
v 1 0.3 -0.8
v 1 0.4 -0.2
v 1 0.4 -0.3
v 1 0.4 -0.7
v 1 0.4 -0.8
v -0.1 0.3 0.5
v -0.1 0.5 0.5
v 5.96046e-08 0.5 0.5
v 5.96046e-08 0.6 0.5
v 0.1 0.5 0.5
v 0.1 0.6 0.5
v 0.2 0.3 0.5
v 0.2 0.5 0.5
v -0.2 0.3 0.4
v -0.2 0.6 0.4
v -0.1 0.3 0.4
v -0.1 0.5 0.4
v -0.1 0.6 0.4
v -0.1 0.7 0.4
v 5.96046e-08 0.5 0.4
v 5.96046e-08 0.6 0.4
v 0.1 0.5 0.4
v 0.1 0.6 0.4
v 0.2 0.3 0.4
v 0.2 0.5 0.4
v 0.2 0.6 0.4
v 0.2 0.7 0.4
v 0.3 0.3 0.4
v 0.3 0.6 0.4
v -0.4 0.4 0.2
v -0.4 0.5 0.2
v -0.2 0.4 0.2
v -0.2 0.5 0.2
v 0.3 0.4 0.2
v 0.3 0.5 0.2
v 0.5 0.4 0.2
v 0.5 0.5 0.2
v -0.5 0.4 0.1
v -0.5 0.5 0.1
v -0.4 0.3 0.1
v -0.4 0.4 0.1
v -0.4 0.5 0.1
v -0.4 0.6 0.1
v -0.2 0.5 0.1
v -0.2 0.6 0.1
v -0.1 0.3 0.1
v -0.1 0.4 0.1
v -0.1 0.5 0.1
v -0.1 0.6 0.1
v 0.2 0.3 0.1
v 0.2 0.4 0.1
v 0.2 0.5 0.1
v 0.2 0.6 0.1
v 0.3 0.5 0.1
v 0.3 0.6 0.1
v 0.5 0.3 0.1
v 0.5 0.4 0.1
v 0.5 0.5 0.1
v 0.5 0.6 0.1
v 0.6 0.4 0.1
v 0.6 0.5 0.1
v -0.6 0.3 0
v -0.6 0.4 0
v -0.5 0.4 0
v -0.4 0.3 0
v -0.4 0.4 0
v 0.5 0.3 0
v 0.5 0.4 0
v 0.6 0.4 0
v 0.8 0.3 0
v 0.8 0.4 0
v -0.7 0.3 -0.1
v -0.7 0.4 -0.1
v -0.6 0.3 -0.1
v -0.6 0.4 -0.1
v 0.8 0.3 -0.1
v 0.8 0.4 -0.1
v 0.9 0.3 -0.1
v 0.9 0.4 -0.1
v -0.8 0.3 -0.2
v -0.8 0.4 -0.2
v -0.7 0.3 -0.2
v -0.7 0.4 -0.2
v 0.9 0.3 -0.2
v 0.9 0.4 -0.2
v 1 0.3 -0.2
v 1 0.4 -0.2
v -0.6 0.3 -0.5
v -0.6 0.4 -0.5
v -0.5 0.4 -0.5
v -0.4 0.3 -0.5
v -0.4 0.4 -0.5
v 0.5 0.3 -0.5
v 0.5 0.4 -0.5
v 0.6 0.4 -0.5
v 0.8 0.3 -0.5
v 0.8 0.4 -0.5
v -0.7 0.3 -0.6
v -0.7 0.4 -0.6
v -0.6 0.3 -0.6
v -0.6 0.4 -0.6
v 0.8 0.3 -0.6
v 0.8 0.4 -0.6
v 0.9 0.3 -0.6
v 0.9 0.4 -0.6
v -0.8 0.3 -0.7
v -0.8 0.4 -0.7
v -0.7 0.3 -0.7
v -0.7 0.4 -0.7
v 0.9 0.3 -0.7
v 0.9 0.4 -0.7
v 1 0.3 -0.7
v 1 0.4 -0.7
v -0.2 0.3 0.2
v -0.2 0.4 0.2
v -0.2 0.5 0.2
v -0.2 0.6 0.2
v -0.1 0.3 0.2
v -0.1 0.4 0.2
v -0.1 0.6 0.2
v -0.1 0.7 0.2
v 0.2 0.3 0.2
v 0.2 0.4 0.2
v 0.2 0.6 0.2
v 0.2 0.7 0.2
v 0.3 0.3 0.2
v 0.3 0.4 0.2
v 0.3 0.5 0.2
v 0.3 0.6 0.2
v -0.5 0.3 -0.2
v -0.5 0.4 -0.2
v -0.4 0.3 -0.2
v -0.4 0.4 -0.2
v 0.5 0.3 -0.2
v 0.5 0.4 -0.2
v 0.6 0.3 -0.2
v 0.6 0.4 -0.2
v -0.8 0.3 -0.3
v -0.8 0.4 -0.3
v -0.5 0.3 -0.3
v -0.5 0.4 -0.3
v 0.6 0.3 -0.3
v 0.6 0.4 -0.3
v 1 0.3 -0.3
v 1 0.4 -0.3
v -0.5 0.3 -0.7
v -0.5 0.4 -0.7
v -0.4 0.3 -0.7
v -0.4 0.4 -0.7
v 0.5 0.3 -0.7
v 0.5 0.4 -0.7
v 0.6 0.3 -0.7
v 0.6 0.4 -0.7
v -0.8 0.3 -0.8
v -0.8 0.4 -0.8
v -0.5 0.3 -0.8
v -0.5 0.4 -0.8
v -0.4 0.3 -0.8
v -0.4 0.4 -0.8
v -0.3 0.3 -0.8
v -0.3 0.4 -0.8
v 0.4 0.3 -0.8
v 0.4 0.4 -0.8
v 0.5 0.3 -0.8
v 0.5 0.4 -0.8
v 0.6 0.3 -0.8
v 0.6 0.4 -0.8
v 1 0.3 -0.8
v 1 0.4 -0.8
v -0.5 0.4 -0.9
v -0.5 0.5 -0.9
v -0.4 0.4 -0.9
v -0.4 0.5 -0.9
v -0.4 0.6 -0.9
v -0.3 0.3 -0.9
v -0.3 0.4 -0.9
v -0.2 0.3 -0.9
v -0.2 0.4 -0.9
v -0.2 0.5 -0.9
v -0.2 0.6 -0.9
v -0.1 0.5 -0.9
v -0.1 0.6 -0.9
v 0.2 0.5 -0.9
v 0.2 0.6 -0.9
v 0.3 0.3 -0.9
v 0.3 0.4 -0.9
v 0.3 0.5 -0.9
v 0.3 0.6 -0.9
v 0.4 0.3 -0.9
v 0.4 0.4 -0.9
v 0.5 0.4 -0.9
v 0.5 0.5 -0.9
v 0.5 0.6 -0.9
v 0.6 0.4 -0.9
v 0.6 0.5 -0.9
v -0.4 0.4 -1
v -0.4 0.5 -1
v -0.2 0.3 -1
v -0.2 0.4 -1
v -0.1 0.3 -1
v -0.1 0.4 -1
v 0.2 0.3 -1
v 0.2 0.4 -1
v 0.3 0.3 -1
v 0.3 0.4 -1
v 0.5 0.4 -1
v 0.5 0.5 -1
v -0.1 0.3 -1.1
v -0.1 0.4 -1.1
v 5.96046e-08 0.3 -1.1
v 5.96046e-08 0.4 -1.1
v 0.1 0.3 -1.1
v 0.1 0.4 -1.1
v 0.2 0.3 -1.1
v 0.2 0.4 -1.1
v 5.96046e-08 0.3 -1.2
v 5.96046e-08 0.4 -1.2
v 0.1 0.3 -1.2
v 0.1 0.4 -1.2
v -0.1 0.3 0.5
v 0.2 0.3 0.5
v -0.2 0.3 0.4
v -0.1 0.3 0.4
v 0.2 0.3 0.4
v 0.3 0.3 0.4
v -0.2 0.3 0.2
v -0.1 0.3 0.2
v 0.2 0.3 0.2
v 0.3 0.3 0.2
v -0.4 0.3 0.1
v -0.1 0.3 0.1
v 0.2 0.3 0.1
v 0.5 0.3 0.1
v -0.6 0.3 0
v -0.4 0.3 0
v 0.5 0.3 0
v 0.8 0.3 0
v -0.7 0.3 -0.1
v -0.6 0.3 -0.1
v 0.8 0.3 -0.1
v 0.9 0.3 -0.1
v -0.8 0.3 -0.2
v -0.7 0.3 -0.2
v -0.5 0.3 -0.2
v -0.4 0.3 -0.2
v 0.5 0.3 -0.2
v 0.6 0.3 -0.2
v 0.9 0.3 -0.2
v 1 0.3 -0.2
v -0.8 0.3 -0.3
v -0.5 0.3 -0.3
v 0.6 0.3 -0.3
v 1 0.3 -0.3
v -0.6 0.3 -0.5
v -0.4 0.3 -0.5
v 0.5 0.3 -0.5
v 0.8 0.3 -0.5
v -0.7 0.3 -0.6
v -0.6 0.3 -0.6
v 0.8 0.3 -0.6
v 0.9 0.3 -0.6
v -0.8 0.3 -0.7
v -0.7 0.3 -0.7
v -0.5 0.3 -0.7
v -0.4 0.3 -0.7
v 0.5 0.3 -0.7
v 0.6 0.3 -0.7
v 0.9 0.3 -0.7
v 1 0.3 -0.7
v -0.8 0.3 -0.8
v -0.5 0.3 -0.8
v -0.4 0.3 -0.8
v -0.3 0.3 -0.8
v 0.4 0.3 -0.8
v 0.5 0.3 -0.8
v 0.6 0.3 -0.8
v 1 0.3 -0.8
v -0.3 0.3 -0.9
v -0.2 0.3 -0.9
v 0.3 0.3 -0.9
v 0.4 0.3 -0.9
v -0.2 0.3 -1
v -0.1 0.3 -1
v 0.2 0.3 -1
v 0.3 0.3 -1
v -0.1 0.3 -1.1
v 5.96046e-08 0.3 -1.1
v 0.1 0.3 -1.1
v 0.2 0.3 -1.1
v 5.96046e-08 0.3 -1.2
v 0.1 0.3 -1.2
v -0.4 0.4 0.2
v -0.2 0.4 0.2
v -0.1 0.4 0.2
v 0.2 0.4 0.2
v 0.3 0.4 0.2
v 0.5 0.4 0.2
v -0.5 0.4 0.1
v -0.4 0.4 0.1
v -0.1 0.4 0.1
v 0.2 0.4 0.1
v 0.5 0.4 0.1
v 0.6 0.4 0.1
v -0.5 0.4 0
v -0.4 0.4 0
v 0.5 0.4 0
v 0.6 0.4 0
v -0.5 0.4 -0.2
v -0.4 0.4 -0.2
v 0.5 0.4 -0.2
v 0.6 0.4 -0.2
v -0.5 0.4 -0.3
v 0.6 0.4 -0.3
v -0.5 0.4 -0.5
v -0.4 0.4 -0.5
v 0.5 0.4 -0.5
v 0.6 0.4 -0.5
v -0.5 0.4 -0.7
v -0.4 0.4 -0.7
v 0.5 0.4 -0.7
v 0.6 0.4 -0.7
v -0.5 0.4 -0.8
v -0.4 0.4 -0.8
v -0.3 0.4 -0.8
v 0.4 0.4 -0.8
v 0.5 0.4 -0.8
v 0.6 0.4 -0.8
v -0.5 0.4 -0.9
v -0.4 0.4 -0.9
v -0.3 0.4 -0.9
v -0.2 0.4 -0.9
v 0.3 0.4 -0.9
v 0.4 0.4 -0.9
v 0.5 0.4 -0.9
v 0.6 0.4 -0.9
v -0.4 0.4 -1
v -0.2 0.4 -1
v 0.3 0.4 -1
v 0.5 0.4 -1
v -0.6 0.4 0
v -0.5 0.4 0
v 0.6 0.4 0
v 0.8 0.4 0
v -0.7 0.4 -0.1
v -0.6 0.4 -0.1
v 0.8 0.4 -0.1
v 0.9 0.4 -0.1
v -0.8 0.4 -0.2
v -0.7 0.4 -0.2
v 0.9 0.4 -0.2
v 1 0.4 -0.2
v -0.8 0.4 -0.3
v -0.5 0.4 -0.3
v 0.6 0.4 -0.3
v 1 0.4 -0.3
v -0.6 0.4 -0.5
v -0.5 0.4 -0.5
v 0.6 0.4 -0.5
v 0.8 0.4 -0.5
v -0.7 0.4 -0.6
v -0.6 0.4 -0.6
v 0.8 0.4 -0.6
v 0.9 0.4 -0.6
v -0.8 0.4 -0.7
v -0.7 0.4 -0.7
v 0.9 0.4 -0.7
v 1 0.4 -0.7
v -0.8 0.4 -0.8
v -0.5 0.4 -0.8
v 0.6 0.4 -0.8
v 1 0.4 -0.8
v -0.1 0.4 -1
v 0.2 0.4 -1
v -0.1 0.4 -1.1
v 5.96046e-08 0.4 -1.1
v 0.1 0.4 -1.1
v 0.2 0.4 -1.1
v 5.96046e-08 0.4 -1.2
v 0.1 0.4 -1.2
v -0.1 0.5 0.5
v 5.96046e-08 0.5 0.5
v 0.1 0.5 0.5
v 0.2 0.5 0.5
v -0.1 0.5 0.4
v 5.96046e-08 0.5 0.4
v 0.1 0.5 0.4
v 0.2 0.5 0.4
v -0.4 0.5 0.2
v -0.2 0.5 0.2
v 0.3 0.5 0.2
v 0.5 0.5 0.2
v -0.5 0.5 0.1
v -0.4 0.5 0.1
v -0.2 0.5 0.1
v -0.1 0.5 0.1
v 0.2 0.5 0.1
v 0.3 0.5 0.1
v 0.5 0.5 0.1
v 0.6 0.5 0.1
v -0.4 0.5 -0.1
v 0.5 0.5 -0.1
v -0.4 0.5 -0.2
v 0.5 0.5 -0.2
v -0.4 0.5 -0.6
v 0.5 0.5 -0.6
v -0.4 0.5 -0.7
v 0.5 0.5 -0.7
v -0.5 0.5 -0.9
v -0.4 0.5 -0.9
v -0.2 0.5 -0.9
v -0.1 0.5 -0.9
v 0.2 0.5 -0.9
v 0.3 0.5 -0.9
v 0.5 0.5 -0.9
v 0.6 0.5 -0.9
v -0.4 0.5 -1
v 0.5 0.5 -1
v 5.96046e-08 0.6 0.5
v 0.1 0.6 0.5
v -0.2 0.6 0.4
v -0.1 0.6 0.4
v 5.96046e-08 0.6 0.4
v 0.1 0.6 0.4
v 0.2 0.6 0.4
v 0.3 0.6 0.4
v -0.2 0.6 0.2
v -0.1 0.6 0.2
v 0.2 0.6 0.2
v 0.3 0.6 0.2
v -0.4 0.6 0.1
v -0.2 0.6 0.1
v -0.1 0.6 0.1
v 0.2 0.6 0.1
v 0.3 0.6 0.1
v 0.5 0.6 0.1
v -0.4 0.6 -0.1
v -0.2 0.6 -0.1
v -0.1 0.6 -0.1
v 0.2 0.6 -0.1
v 0.3 0.6 -0.1
v 0.5 0.6 -0.1
v -0.4 0.6 -0.2
v -0.2 0.6 -0.2
v -0.1 0.6 -0.2
v 0.2 0.6 -0.2
v 0.3 0.6 -0.2
v 0.5 0.6 -0.2
v -0.4 0.6 -0.6
v -0.2 0.6 -0.6
v -0.1 0.6 -0.6
v 0.2 0.6 -0.6
v 0.3 0.6 -0.6
v 0.5 0.6 -0.6
v -0.4 0.6 -0.7
v -0.2 0.6 -0.7
v -0.1 0.6 -0.7
v 0.2 0.6 -0.7
v 0.3 0.6 -0.7
v 0.5 0.6 -0.7
v -0.4 0.6 -0.9
v -0.2 0.6 -0.9
v -0.1 0.6 -0.9
v 0.2 0.6 -0.9
v 0.3 0.6 -0.9
v 0.5 0.6 -0.9
v -0.1 0.7 0.4
v 0.2 0.7 0.4
v -0.1 0.7 0.2
v 0.2 0.7 0.2

# faces
f 5/2/1 2/2/1 1/2/1
f 6/2/1 2/2/1 5/2/1
f 7/2/1 4/2/1 3/2/1
f 8/2/1 4/2/1 7/2/1
f 13/2/1 10/2/1 9/2/1
f 14/2/1 10/2/1 13/2/1
f 15/2/1 12/2/1 11/2/1
f 16/2/1 12/2/1 15/2/1
f 21/2/1 18/2/1 17/2/1
f 22/2/1 18/2/1 21/2/1
f 23/2/1 20/2/1 19/2/1
f 24/2/1 20/2/1 23/2/1
f 31/4/1 26/4/1 25/4/1
f 31/4/1 30/4/1 29/4/1
f 31/4/1 29/4/1 28/4/1
f 31/4/1 28/4/1 27/4/1
f 31/4/1 27/4/1 26/4/1
f 32/4/1 30/4/1 31/4/1
f 40/2/1 34/2/1 33/2/1
f 41/2/1 34/2/1 40/2/1
f 42/2/1 36/2/1 35/2/1
f 43/2/1 36/2/1 42/2/1
f 44/2/1 38/2/1 37/2/1
f 45/2/1 38/2/1 44/2/1
f 48/4/1 40/4/1 39/4/1
f 49/4/1 40/4/1 48/4/1
f 54/4/1 47/4/1 46/4/1
f 55/4/1 47/4/1 54/4/1
f 56/3/1 50/3/1 49/3/1
f 57/4/1 51/4/1 50/4/1
f 57/3/1 50/3/1 56/3/1
f 58/3/1 52/3/1 51/3/1
f 58/4/1 51/4/1 57/4/1
f 59/4/1 53/4/1 52/4/1
f 59/3/1 52/3/1 58/3/1
f 60/3/1 54/3/1 53/3/1
f 60/4/1 53/4/1 59/4/1
f 61/3/1 54/3/1 60/3/1
f 64/2/1 63/2/1 62/2/1
f 65/2/1 63/2/1 64/2/1
f 70/2/1 67/2/1 66/2/1
f 71/2/1 69/2/1 68/2/1
f 72/2/1 69/2/1 71/2/1
f 73/2/1 70/2/1 66/2/1
f 74/2/1 73/2/1 66/2/1
f 75/2/1 73/2/1 74/2/1
f 82/2/1 79/2/1 78/2/1
f 83/2/1 79/2/1 82/2/1
f 84/2/1 81/2/1 80/2/1
f 85/2/1 81/2/1 84/2/1
f 86/2/1 77/2/1 76/2/1
f 87/2/1 77/2/1 86/2/1
f 90/2/1 89/2/1 88/2/1
f 91/2/1 89/2/1 90/2/1
f 94/2/1 93/2/1 92/2/1
f 95/2/1 93/2/1 94/2/1
f 98/2/1 97/2/1 96/2/1
f 99/2/1 97/2/1 98/2/1
f 104/2/1 101/2/1 100/2/1
f 105/2/1 101/2/1 104/2/1
f 106/2/1 103/2/1 102/2/1
f 107/2/1 103/2/1 106/2/1
f 108/2/2 109/2/2 112/2/2
f 112/2/2 109/2/2 113/2/2
f 110/2/2 111/2/2 114/2/2
f 114/2/2 111/2/2 115/2/2
f 116/2/2 117/2/2 118/2/2
f 118/2/2 117/2/2 119/2/2
f 120/2/2 121/2/2 122/2/2
f 122/2/2 121/2/2 123/2/2
f 126/2/2 127/2/2 130/2/2
f 130/2/2 127/2/2 131/2/2
f 128/2/2 129/2/2 132/2/2
f 132/2/2 129/2/2 133/2/2
f 124/2/2 125/2/2 134/2/2
f 134/2/2 125/2/2 135/2/2
f 136/2/2 137/2/2 138/2/2
f 138/2/2 137/2/2 139/2/2
f 140/2/2 141/2/2 144/2/2
f 142/2/2 143/2/2 145/2/2
f 145/2/2 143/2/2 146/2/2
f 140/2/2 144/2/2 147/2/2
f 140/2/2 147/2/2 148/2/2
f 148/2/2 147/2/2 149/2/2
f 150/2/2 151/2/2 152/2/2
f 152/2/2 151/2/2 153/2/2
f 154/2/2 155/2/2 161/2/2
f 161/2/2 155/2/2 162/2/2
f 156/2/2 157/2/2 163/2/2
f 163/2/2 157/2/2 164/2/2
f 158/2/2 159/2/2 165/2/2
f 165/2/2 159/2/2 166/2/2
f 160/4/2 161/4/2 169/4/2
f 169/4/2 161/4/2 170/4/2
f 167/4/2 168/4/2 175/4/2
f 175/4/2 168/4/2 176/4/2
f 170/3/2 171/3/2 177/3/2
f 171/4/2 172/4/2 178/4/2
f 177/3/2 171/3/2 178/3/2
f 172/3/2 173/3/2 179/3/2
f 178/4/2 172/4/2 179/4/2
f 173/4/2 174/4/2 180/4/2
f 179/3/2 173/3/2 180/3/2
f 174/3/2 175/3/2 181/3/2
f 180/4/2 174/4/2 181/4/2
f 181/3/2 175/3/2 182/3/2
f 183/4/2 184/4/2 189/4/2
f 187/4/2 188/4/2 189/4/2
f 186/4/2 187/4/2 189/4/2
f 185/4/2 186/4/2 189/4/2
f 184/4/2 185/4/2 189/4/2
f 189/4/2 188/4/2 190/4/2
f 191/2/2 192/2/2 195/2/2
f 195/2/2 192/2/2 196/2/2
f 193/2/2 194/2/2 197/2/2
f 197/2/2 194/2/2 198/2/2
f 199/2/2 200/2/2 203/2/2
f 203/2/2 200/2/2 204/2/2
f 201/2/2 202/2/2 205/2/2
f 205/2/2 202/2/2 206/2/2
f 207/2/2 208/2/2 211/2/2
f 211/2/2 208/2/2 212/2/2
f 209/2/2 210/2/2 213/2/2
f 213/2/2 210/2/2 214/2/2
f 217/2/3 216/2/3 215/2/3
f 219/2/3 217/2/3 215/2/3
f 219/2/3 218/2/3 217/2/3
f 220/2/3 218/2/3 219/2/3
f 221/2/3 219/2/3 215/2/3
f 222/2/3 219/2/3 221/2/3
f 225/2/3 224/2/3 223/2/3
f 226/2/3 224/2/3 225/2/3
f 227/2/3 224/2/3 226/2/3
f 229/1/3 227/1/3 226/1/3
f 230/2/3 228/2/3 227/2/3
f 230/1/3 227/1/3 229/1/3
f 232/2/3 228/2/3 230/2/3
f 234/1/3 232/1/3 231/1/3
f 235/2/3 228/2/3 232/2/3
f 235/1/3 232/1/3 234/1/3
f 236/2/3 228/2/3 235/2/3
f 237/2/3 234/2/3 233/2/3
f 237/2/3 235/2/3 234/2/3
f 238/2/3 235/2/3 237/2/3
f 241/4/3 240/4/3 239/4/3
f 242/4/3 240/4/3 241/4/3
f 245/4/3 244/4/3 243/4/3
f 246/4/3 244/4/3 245/4/3
f 250/4/3 248/4/3 247/4/3
f 251/4/3 248/4/3 250/4/3
f 253/3/3 252/3/3 251/3/3
f 254/3/3 252/3/3 253/3/3
f 255/2/3 250/2/3 249/2/3
f 256/2/3 250/2/3 255/2/3
f 257/4/3 254/4/3 253/4/3
f 258/4/3 254/4/3 257/4/3
f 261/3/3 258/3/3 257/3/3
f 262/3/3 258/3/3 261/3/3
f 263/4/3 262/4/3 261/4/3
f 264/4/3 262/4/3 263/4/3
f 265/2/3 260/2/3 259/2/3
f 266/2/3 260/2/3 265/2/3
f 267/3/3 264/3/3 263/3/3
f 268/3/3 264/3/3 267/3/3
f 269/4/3 267/4/3 266/4/3
f 270/4/3 267/4/3 269/4/3
f 273/2/3 272/2/3 271/2/3
f 274/2/3 273/2/3 271/2/3
f 275/2/3 273/2/3 274/2/3
f 278/2/3 277/2/3 276/2/3
f 279/2/3 278/2/3 276/2/3
f 280/2/3 278/2/3 279/2/3
f 283/2/3 282/2/3 281/2/3
f 284/2/3 282/2/3 283/2/3
f 287/2/3 286/2/3 285/2/3
f 288/2/3 286/2/3 287/2/3
f 291/2/3 290/2/3 289/2/3
f 292/2/3 290/2/3 291/2/3
f 295/2/3 294/2/3 293/2/3
f 296/2/3 294/2/3 295/2/3
f 299/2/3 298/2/3 297/2/3
f 300/2/3 299/2/3 297/2/3
f 301/2/3 299/2/3 300/2/3
f 304/2/3 303/2/3 302/2/3
f 305/2/3 304/2/3 302/2/3
f 306/2/3 304/2/3 305/2/3
f 309/2/3 308/2/3 307/2/3
f 310/2/3 308/2/3 309/2/3
f 313/2/3 312/2/3 311/2/3
f 314/2/3 312/2/3 313/2/3
f 317/2/3 316/2/3 315/2/3
f 318/2/3 316/2/3 317/2/3
f 321/2/3 320/2/3 319/2/3
f 322/2/3 320/2/3 321/2/3
f 323/2/4 324/2/4 327/2/4
f 327/2/4 324/2/4 328/2/4
f 325/2/4 326/2/4 329/2/4
f 329/2/4 330/2/4 333/2/4
f 325/2/4 329/2/4 333/2/4
f 333/2/4 330/2/4 334/2/4
f 331/2/4 332/2/4 335/2/4
f 335/2/4 332/2/4 336/2/4
f 325/2/4 333/2/4 337/2/4
f 337/2/4 333/2/4 338/2/4
f 339/2/4 340/2/4 341/2/4
f 341/2/4 340/2/4 342/2/4
f 343/2/4 344/2/4 345/2/4
f 345/2/4 344/2/4 346/2/4
f 347/2/4 348/2/4 349/2/4
f 349/2/4 348/2/4 350/2/4
f 351/2/4 352/2/4 353/2/4
f 353/2/4 352/2/4 354/2/4
f 355/2/4 356/2/4 357/2/4
f 357/2/4 356/2/4 358/2/4
f 359/2/4 360/2/4 361/2/4
f 361/2/4 360/2/4 362/2/4
f 363/2/4 364/2/4 365/2/4
f 365/2/4 364/2/4 366/2/4
f 367/2/4 368/2/4 369/2/4
f 369/2/4 368/2/4 370/2/4
f 371/2/4 372/2/4 373/2/4
f 373/2/4 372/2/4 374/2/4
f 375/2/4 376/2/4 377/2/4
f 377/2/4 376/2/4 378/2/4
f 379/4/4 380/4/4 381/4/4
f 381/4/4 380/4/4 382/4/4
f 384/2/4 385/2/4 386/2/4
f 386/2/4 385/2/4 387/2/4
f 382/3/4 383/3/4 388/3/4
f 388/3/4 383/3/4 389/3/4
f 388/4/4 389/4/4 390/4/4
f 390/4/4 389/4/4 391/4/4
f 390/3/4 391/3/4 392/3/4
f 392/3/4 391/3/4 393/3/4
f 392/4/4 393/4/4 396/4/4
f 396/4/4 393/4/4 397/4/4
f 394/2/4 395/2/4 398/2/4
f 398/2/4 395/2/4 399/2/4
f 396/3/4 397/3/4 401/3/4
f 401/3/4 397/3/4 402/3/4
f 400/4/4 401/4/4 403/4/4
f 403/4/4 401/4/4 404/4/4
f 405/4/4 406/4/4 408/4/4
f 407/2/4 408/2/4 409/2/4
f 408/4/4 406/4/4 410/4/4
f 409/2/4 408/2/4 410/2/4
f 410/4/4 406/4/4 412/4/4
f 411/2/4 412/2/4 413/2/4
f 412/4/4 406/4/4 414/4/4
f 413/2/4 412/2/4 414/2/4
f 414/4/4 406/4/4 415/4/4
f 415/4/4 406/4/4 416/4/4
f 417/2/4 418/2/4 419/2/4
f 419/2/4 418/2/4 420/2/4
f 421/2/4 422/2/4 423/2/4
f 423/2/4 422/2/4 424/2/4
f 425/2/4 426/2/4 427/2/4
f 427/2/4 426/2/4 428/2/4
f 432/2/5 430/2/5 429/2/5
f 433/2/5 430/2/5 432/2/5
f 435/2/5 432/2/5 431/2/5
f 435/2/5 434/2/5 433/2/5
f 435/2/5 433/2/5 432/2/5
f 436/2/5 434/2/5 435/2/5
f 437/2/5 434/2/5 436/2/5
f 438/2/5 434/2/5 437/2/5
f 440/2/5 437/2/5 436/2/5
f 441/2/5 437/2/5 440/2/5
f 444/2/5 441/2/5 440/2/5
f 444/2/5 442/2/5 441/2/5
f 444/2/5 440/2/5 439/2/5
f 445/2/5 442/2/5 444/2/5
f 448/2/5 444/2/5 443/2/5
f 448/2/5 446/2/5 445/2/5
f 448/2/5 445/2/5 444/2/5
f 449/2/5 446/2/5 448/2/5
f 452/2/5 448/2/5 447/2/5
f 452/2/5 450/2/5 449/2/5
f 452/2/5 449/2/5 448/2/5
f 453/2/5 450/2/5 452/2/5
f 454/2/5 450/2/5 453/2/5
f 455/2/5 450/2/5 454/2/5
f 456/2/5 450/2/5 455/2/5
f 457/2/5 450/2/5 456/2/5
f 459/2/5 452/2/5 451/2/5
f 459/2/5 453/2/5 452/2/5
f 460/2/5 453/2/5 459/2/5
f 461/2/5 458/2/5 457/2/5
f 461/2/5 457/2/5 456/2/5
f 462/2/5 458/2/5 461/2/5
f 464/2/5 455/2/5 454/2/5
f 465/2/5 455/2/5 464/2/5
f 468/2/5 464/2/5 463/2/5
f 468/2/5 466/2/5 465/2/5
f 468/2/5 465/2/5 464/2/5
f 469/2/5 466/2/5 468/2/5
f 472/2/5 468/2/5 467/2/5
f 472/2/5 470/2/5 469/2/5
f 472/2/5 469/2/5 468/2/5
f 473/2/5 470/2/5 472/2/5
f 474/2/5 470/2/5 473/2/5
f 475/2/5 470/2/5 474/2/5
f 476/2/5 470/2/5 475/2/5
f 477/2/5 470/2/5 476/2/5
f 479/2/5 472/2/5 471/2/5
f 479/2/5 473/2/5 472/2/5
f 480/2/5 473/2/5 479/2/5
f 481/2/5 475/2/5 474/2/5
f 482/2/5 475/2/5 481/2/5
f 483/2/5 475/2/5 482/2/5
f 484/2/5 475/2/5 483/2/5
f 485/2/5 478/2/5 477/2/5
f 485/2/5 477/2/5 476/2/5
f 486/2/5 478/2/5 485/2/5
f 487/2/5 483/2/5 482/2/5
f 488/2/5 483/2/5 487/2/5
f 489/2/5 483/2/5 488/2/5
f 490/2/5 483/2/5 489/2/5
f 491/2/5 489/2/5 488/2/5
f 492/2/5 489/2/5 491/2/5
f 493/2/5 489/2/5 492/2/5
f 494/2/5 489/2/5 493/2/5
f 495/2/5 493/2/5 492/2/5
f 496/2/5 493/2/5 495/2/5
f 497/2/5 493/2/5 496/2/5
f 498/2/5 493/2/5 497/2/5
f 499/2/5 497/2/5 496/2/5
f 500/2/5 497/2/5 499/2/5
f 508/4/5 502/4/5 501/4/5
f 508/4/5 503/4/5 502/4/5
f 509/4/5 503/4/5 508/4/5
f 510/4/5 506/4/5 505/4/5
f 510/4/5 505/4/5 504/4/5
f 511/4/5 506/4/5 510/4/5
f 513/4/5 508/4/5 507/4/5
f 514/4/5 508/4/5 513/4/5
f 515/4/5 512/4/5 511/4/5
f 516/4/5 512/4/5 515/4/5
f 521/4/5 518/4/5 517/4/5
f 522/4/5 520/4/5 519/4/5
f 523/4/5 518/4/5 521/4/5
f 524/4/5 518/4/5 523/4/5
f 525/4/5 522/4/5 519/4/5
f 526/4/5 522/4/5 525/4/5
f 531/4/5 528/4/5 527/4/5
f 532/4/5 528/4/5 531/4/5
f 535/4/5 530/4/5 529/4/5
f 536/4/5 530/4/5 535/4/5
f 537/4/5 532/4/5 531/4/5
f 538/2/5 533/2/5 532/2/5
f 538/4/5 532/4/5 537/4/5
f 539/2/5 533/2/5 538/2/5
f 542/2/5 535/2/5 534/2/5
f 543/4/5 536/4/5 535/4/5
f 543/2/5 535/2/5 542/2/5
f 544/4/5 536/4/5 543/4/5
f 545/4/5 540/4/5 539/4/5
f 545/4/5 539/4/5 538/4/5
f 546/4/5 540/4/5 545/4/5
f 547/4/5 542/4/5 541/4/5
f 547/4/5 543/4/5 542/4/5
f 548/4/5 543/4/5 547/4/5
f 549/2/6 550/2/6 554/2/6
f 551/2/6 552/2/6 555/2/6
f 553/2/6 554/2/6 558/2/6
f 555/2/6 556/2/6 559/2/6
f 557/2/6 558/2/6 561/2/6
f 554/2/6 550/2/6 562/2/6
f 561/2/6 558/2/6 562/2/6
f 558/2/6 554/2/6 562/2/6
f 559/2/6 560/2/6 563/2/6
f 551/2/6 555/2/6 563/2/6
f 555/2/6 559/2/6 563/2/6
f 563/2/6 560/2/6 564/2/6
f 565/2/6 566/2/6 570/2/6
f 567/2/6 568/2/6 571/2/6
f 569/2/6 570/2/6 574/2/6
f 571/2/6 572/2/6 575/2/6
f 573/2/6 574/2/6 577/2/6
f 570/2/6 566/2/6 578/2/6
f 577/2/6 574/2/6 578/2/6
f 574/2/6 570/2/6 578/2/6
f 575/2/6 576/2/6 579/2/6
f 567/2/6 571/2/6 579/2/6
f 571/2/6 575/2/6 579/2/6
f 579/2/6 576/2/6 580/2/6
f 581/2/6 582/2/6 583/2/6
f 583/2/6 582/2/6 584/2/6
f 584/2/6 582/2/6 585/2/6
f 585/2/6 582/2/6 586/2/6
f 584/2/6 585/2/6 587/2/6
f 587/2/6 585/2/6 588/2/6
f 589/2/6 590/2/6 593/2/6
f 593/2/6 590/2/6 594/2/6
f 591/2/6 592/2/6 595/2/6
f 595/2/6 592/2/6 596/2/6
f 597/4/6 598/4/6 602/4/6
f 599/4/6 600/4/6 602/4/6
f 598/4/6 599/4/6 602/4/6
f 602/4/6 600/4/6 603/4/6
f 603/4/6 600/4/6 604/4/6
f 604/4/6 600/4/6 605/4/6
f 605/4/6 600/4/6 606/4/6
f 606/4/6 600/4/6 607/4/6
f 601/4/6 602/4/6 609/4/6
f 607/4/6 608/4/6 610/4/6
f 601/4/6 609/4/6 611/4/6
f 610/4/6 608/4/6 612/4/6
f 601/4/6 611/4/6 613/4/6
f 612/4/6 608/4/6 614/4/6
f 601/4/6 613/4/6 615/4/6
f 614/4/6 608/4/6 616/4/6
f 601/4/6 615/4/6 617/4/6
f 617/4/6 615/4/6 618/4/6
f 616/4/6 608/4/6 623/4/6
f 623/4/6 608/4/6 624/4/6
f 621/4/6 622/4/6 625/4/6
f 622/4/6 623/4/6 625/4/6
f 618/4/6 619/4/6 625/4/6
f 620/4/6 621/4/6 625/4/6
f 619/4/6 620/4/6 625/4/6
f 625/4/6 623/4/6 626/4/6
f 627/2/6 628/2/6 631/2/6
f 631/2/6 628/2/6 632/2/6
f 629/2/6 630/2/6 635/2/6
f 635/2/6 630/2/6 636/2/6
f 633/2/6 634/2/6 637/2/6
f 637/2/6 634/2/6 638/2/6
f 639/3/6 640/3/6 645/3/6
f 640/4/6 641/4/6 646/4/6
f 645/3/6 640/3/6 646/3/6
f 641/3/6 642/3/6 647/3/6
f 646/4/6 641/4/6 647/4/6
f 642/4/6 643/4/6 648/4/6
f 647/3/6 642/3/6 648/3/6
f 643/3/6 644/3/6 649/3/6
f 648/4/6 643/4/6 649/4/6
f 649/3/6 644/3/6 650/3/6
f 646/4/6 647/4/6 651/4/6
f 647/4/6 648/4/6 651/4/6
f 649/4/6 650/4/6 651/4/6
f 648/4/6 649/4/6 651/4/6
f 645/4/6 646/4/6 651/4/6
f 651/4/6 650/4/6 652/4/6
f 652/4/6 650/4/6 653/4/6
f 653/4/6 650/4/6 654/4/6
f 654/4/6 650/4/6 655/4/6
f 655/4/6 650/4/6 656/4/6
f 651/3/6 652/3/6 657/3/6
f 652/4/6 653/4/6 658/4/6
f 657/3/6 652/3/6 658/3/6
f 653/3/6 654/3/6 659/3/6
f 658/4/6 653/4/6 659/4/6
f 654/4/6 655/4/6 660/4/6
f 659/3/6 654/3/6 660/3/6
f 655/3/6 656/3/6 661/3/6
f 660/4/6 655/4/6 661/4/6
f 661/3/6 656/3/6 662/3/6
f 657/4/6 658/4/6 663/4/6
f 658/4/6 659/4/6 663/4/6
f 661/4/6 662/4/6 663/4/6
f 660/4/6 661/4/6 663/4/6
f 659/4/6 660/4/6 663/4/6
f 663/4/6 662/4/6 664/4/6
f 664/4/6 662/4/6 665/4/6
f 665/4/6 662/4/6 666/4/6
f 666/4/6 662/4/6 667/4/6
f 667/4/6 662/4/6 668/4/6
f 663/3/6 664/3/6 669/3/6
f 664/4/6 665/4/6 670/4/6
f 669/3/6 664/3/6 670/3/6
f 665/3/6 666/3/6 671/3/6
f 670/4/6 665/4/6 671/4/6
f 666/4/6 667/4/6 672/4/6
f 671/3/6 666/3/6 672/3/6
f 667/3/6 668/3/6 673/3/6
f 672/4/6 667/4/6 673/4/6
f 673/3/6 668/3/6 674/3/6
f 675/2/6 676/2/6 677/2/6
f 677/2/6 676/2/6 678/2/6
